<svg width="72" height="69" viewBox="0 0 72 69" fill="none" xmlns="http://www.w3.org/2000/svg">
<g style="mix-blend-mode:multiply">
<path d="M36.0004 36.1776C30.1996 36.1776 25.4957 31.6697 25.4957 26.1106C25.4957 20.5516 30.1996 16.0437 36.0004 16.0437C41.8012 16.0437 46.5051 20.5516 46.5051 26.1106C46.5051 31.6697 41.8012 36.1776 36.0004 36.1776ZM36.0004 19.3993C32.1332 19.3993 28.9973 22.4046 28.9973 26.1106C28.9973 29.8167 32.1332 32.822 36.0004 32.822C39.8676 32.822 43.0035 29.8167 43.0035 26.1106C43.0035 22.4046 39.8676 19.3993 36.0004 19.3993ZM47.7848 11.6099C44.5293 9.14365 40.4441 7.66123 36.0004 7.66123C25.3691 7.66123 16.7418 16.0706 16.7418 26.4408C16.7418 35.2612 36.0004 59.6673 36.0004 59.6673C36.0004 59.6673 55.259 35.1467 55.259 26.4408C55.259 21.6229 53.3816 17.2431 50.3301 13.9211L52.8613 11.4953C56.5176 15.3631 58.7676 20.4842 58.7676 26.1106C58.7676 36.2248 36.0074 64.694 36.0074 64.694C36.0074 64.694 13.2402 36.3528 13.2402 26.1106C13.2402 14.0693 23.4285 4.29883 36.0004 4.29883C41.4285 4.29883 46.4137 6.1249 50.323 9.17061L47.7848 11.6099Z" fill="#2C2C2C"/>
</g>
</svg>
