<svg width="54" height="62" viewBox="0 0 54 62" fill="none" xmlns="http://www.w3.org/2000/svg">
<path d="M49.6792 12.1518C49.6252 12.0278 49.6252 11.9038 49.5712 11.7798C49.5172 11.7178 49.4632 11.5938 49.4092 11.5318L49.3552 11.4698L49.3012 11.4078C49.2472 11.3458 49.1932 11.2838 49.0852 11.2838H49.0312C48.9232 11.2218 48.8692 11.2218 48.7612 11.2218H48.7072C41.5792 9.9198 34.2352 9.2998 26.9992 9.2998C19.7632 9.2998 12.4192 9.9198 5.23722 11.1598H5.18322C5.07522 11.1598 5.02122 11.2218 4.91322 11.2218H4.85922C4.80522 11.2838 4.69722 11.2838 4.64322 11.3458L4.58922 11.4078L4.53522 11.4698C4.48122 11.5318 4.42722 11.5938 4.37322 11.7178V11.7798C4.31922 11.9038 4.31922 11.9658 4.26522 12.0898C3.23922 18.4138 2.69922 24.7378 2.69922 30.9998C2.69922 37.2618 3.23922 43.5858 4.31922 49.8478C4.42722 50.3438 4.75122 50.7778 5.23722 50.8398C12.4192 52.0798 19.7632 52.6998 26.9992 52.6998C34.2352 52.6998 41.5792 52.0798 48.7612 50.8398C49.1932 50.7778 49.5712 50.3438 49.6792 49.8478C50.7592 43.5858 51.2992 37.2618 51.2992 30.9998C51.2992 24.7378 50.7592 18.4138 49.6792 12.1518ZM46.4932 13.3298C44.1712 16.3678 41.4172 19.2198 38.2312 21.9478C34.5052 25.1718 30.7252 27.7138 26.9992 29.6358C22.8952 27.4038 19.1692 24.8618 15.7672 21.9478C12.7972 19.4058 10.0432 16.4918 7.50522 13.3298C13.9852 12.2758 20.5192 11.7798 26.9992 11.7798C33.4792 11.7798 40.0132 12.2758 46.4932 13.3298ZM47.6812 48.4838C40.8232 49.6618 33.8572 50.2198 26.9992 50.2198C20.1412 50.2198 13.1752 49.6618 6.31722 48.4838C5.34522 42.7178 4.85922 36.8278 4.85922 30.9998C4.85922 25.7298 5.29122 20.3978 6.04722 15.1278C8.58522 18.3518 11.4472 21.3278 14.4712 23.9318C18.1432 27.0938 22.0852 29.7598 26.5672 32.1158C26.7292 32.1778 26.8912 32.2398 26.9992 32.2398C27.1612 32.2398 27.2692 32.1778 27.4312 32.1158C31.4812 30.1318 35.5312 27.3418 39.5272 23.9318C42.7132 21.1418 45.5752 18.2278 47.9512 15.1898C48.7612 20.4598 49.1392 25.7298 49.1392 30.9998C49.1392 36.8278 48.6532 42.7178 47.6812 48.4838Z" fill="black"/>
</svg>
