<svg width="66" height="49" viewBox="0 0 66 49" fill="none" xmlns="http://www.w3.org/2000/svg">
<g style="mix-blend-mode:multiply">
<path d="M32.9838 3.8916C-3.34179 3.8916 0.119112 19.1919 1.22672 21.0183C2.95012 23.4592 6.90431 23.7482 8.96351 21.0183C12.9479 15.5171 21.7397 8.48692 32.9838 8.48692C44.2314 8.48692 52.4863 14.9832 57.2618 21.072C58.0431 22.3743 62.3473 23.7846 64.6319 21.0183C65.9218 19.7 69.7174 3.93061 32.9838 3.8916Z" fill="#2E333A"/>
<path d="M32.927 10.4404C17.7848 10.4404 5.50977 28.1324 5.50977 36.9999C5.50977 45.1245 10.2135 45.1078 32.927 45.1078C55.6389 45.1078 60.3427 45.1244 60.3427 36.9999C60.3427 28.1324 48.068 10.4404 32.927 10.4404ZM32.8468 32.7986C26.4142 32.7986 21.1989 28.6455 21.1989 23.5209C21.1989 18.3969 26.4142 14.2428 32.8468 14.2428C39.2806 14.2428 44.4956 18.3968 44.4956 23.5209C44.4956 28.6454 39.2806 32.7986 32.8468 32.7986Z" fill="#2E333A"/>
</g>
</svg>
